# xmcd
#
# Track frame offsets: 
#        150
#        7168
#        14179
#        24861
#        38424
#        49909
#        59243
#        68706
#        81102
#        92630
#        105782
#        117798
#        128372
#        141687
#
# Disc length: 2156 seconds
#
# Revision: 1
# Processed by: cddbd v1.5.2PL0 Copyright (c) Steve Scherf et al.
# Submitted via: ExactAudioCopy v1.0b6
#
DISCID=b6086a0e
DTITLE=TH eROCKERS - WHO TH eROCKERS
DYEAR=1980
DGENRE=Rock
TTITLE0=HEY DJ!
TTITLE1=I LOVE YOU SO MUCH
TTITLE2=非常線をぶち破れ
TTITLE3=愚者
TTITLE4=TO BE OR NOT TO BE
TTITLE5=キャデラック 
TTITLE6=ショック・ゲーム
TTITLE7=MIDNIGHT TRAIN
TTITLE8=ムーンナイト・ラブ
TTITLE9=HEY HEY HEY
TTITLE10=プシー・キャット
TTITLE11=1999
TTITLE12=歌うたい
TTITLE13=Seventeen～フェナー先生
EXTD=YEAR: 1980
EXTT0=
EXTT1=
EXTT2=
EXTT3=
EXTT4=
EXTT5=
EXTT6=
EXTT7=
EXTT8=
EXTT9=
EXTT10=
EXTT11=
EXTT12=
EXTT13=
PLAYORDER=
